#define arc_width 16#define arc_height 16static unsigned char arc_bits[] = {   0x00, 0x00, 0x00, 0x00, 0x00, 0x00, 0x00, 0x1e, 0x80, 0x01, 0x40, 0x00,   0x20, 0x00, 0x10, 0x00, 0x10, 0x00, 0x08, 0x00, 0x08, 0x00, 0x08, 0x00,   0x08, 0x00, 0x00, 0x00, 0x00, 0x00, 0x00, 0x00};