#define cut_width 16#define cut_height 16static unsigned char cut_bits[] = {  0x00, 0x00, 0x20, 0x00, 0x40, 0x00, 0x40, 0x00, 0x40, 0x00, 0x40, 0x00,  0x80, 0x00, 0x8e, 0x30, 0xf0, 0x4f, 0x80, 0x48, 0x00, 0x31, 0x00, 0x01,  0x80, 0x02, 0x80, 0x02, 0x00, 0x01, 0x00, 0x00, };