#define line_width 16#define line_height 16static unsigned char line_bits[] = {   0x00, 0x00, 0x00, 0x00, 0x00, 0x00, 0x02, 0x00, 0x0c, 0x00, 0x10, 0x00,   0x60, 0x00, 0x80, 0x00, 0x00, 0x01, 0x00, 0x06, 0x00, 0x08, 0x00, 0x30,   0x00, 0x40, 0x00, 0x00, 0x00, 0x00, 0x00, 0x00};