#define mug_width 32#define mug_height 32static unsigned char mug_bits[] = {  0x40, 0x00, 0x00, 0x00, 0x00, 0x01, 0x00, 0x00, 0x08, 0x0e, 0x00, 0x00,  0x08, 0x08, 0x00, 0x00, 0x10, 0x08, 0x00, 0x00, 0x20, 0x0c, 0x00, 0x00,  0xc0, 0x02, 0x00, 0x00, 0x80, 0x02, 0x00, 0x00, 0xf8, 0x3f, 0x00, 0x00,  0x86, 0xc4, 0x00, 0x00, 0x71, 0x1b, 0x01, 0x00, 0x7b, 0xbf, 0x01, 0x00,  0xfd, 0x7e, 0x1f, 0x00, 0xe1, 0x1f, 0x21, 0x00, 0x01, 0x00, 0xc3, 0x0f,  0x01, 0x00, 0xfd, 0x08, 0x01, 0x00, 0x05, 0x18, 0x45, 0x00, 0x05, 0xf0,  0x6d, 0x00, 0x3d, 0x90, 0x55, 0x70, 0x05, 0x90, 0x45, 0x55, 0x05, 0x90,  0x45, 0x75, 0x3d, 0x90, 0x41, 0x45, 0x05, 0xf0, 0x41, 0x67, 0x05, 0x18,  0x01, 0x50, 0xfb, 0x0f, 0x01, 0x50, 0x11, 0x00, 0x01, 0x70, 0x0f, 0x00,  0x01, 0x00, 0x01, 0x00, 0x01, 0x00, 0x01, 0x00, 0x02, 0x80, 0x00, 0x00,  0x0c, 0x60, 0x00, 0x00, 0xf0, 0x1f, 0x00, 0x00, };