#define multiline_width 16#define multiline_height 16static unsigned char multiline_bits[] = {  0x00, 0x00, 0x00, 0x00, 0x00, 0x01, 0xc0, 0x01, 0xa0, 0x00, 0x98, 0x00,  0x84, 0x30, 0x42, 0x2f, 0xc0, 0x10, 0x00, 0x10, 0x00, 0x08, 0x00, 0x08,  0x78, 0x04, 0x80, 0x07, 0x00, 0x00, 0x00, 0x00, };