#define pat1_width 16#define pat1_height 16static unsigned char pat1_bits[] = {  0xff, 0xff, 0x00, 0x00, 0x00, 0x00, 0x00, 0x00, 0xff, 0xff, 0x00, 0x00,  0x00, 0x00, 0x00, 0x00, 0xff, 0xff, 0x00, 0x00, 0x00, 0x00, 0x00, 0x00,  0xff, 0xff, 0x00, 0x00, 0x00, 0x00, 0x00, 0x00, };