#define pat2_width 16#define pat2_height 16static unsigned char pat2_bits[] = {  0x55, 0x55, 0x55, 0x55, 0x55, 0x55, 0x55, 0x55, 0x55, 0x55, 0x55, 0x55,  0x55, 0x55, 0x55, 0x55, 0x55, 0x55, 0x55, 0x55, 0x55, 0x55, 0x55, 0x55,  0x55, 0x55, 0x55, 0x55, 0x55, 0x55, 0x55, 0x55, };