#define pat3_width 16#define pat3_height 16static unsigned char pat3_bits[] = {  0x11, 0x11, 0x11, 0x11, 0x11, 0x11, 0x11, 0x11, 0x11, 0x11, 0x11, 0x11,  0x11, 0x11, 0x11, 0x11, 0x11, 0x11, 0x11, 0x11, 0x11, 0x11, 0x11, 0x11,  0x11, 0x11, 0x11, 0x11, 0x11, 0x11, 0x11, 0x11, };