#define pat4_width 16#define pat4_height 16static unsigned char pat4_bits[] = {  0xff, 0xff, 0x55, 0x55, 0xff, 0xff, 0x55, 0x55, 0xff, 0xff, 0x55, 0x55,  0xff, 0xff, 0x55, 0x55, 0xff, 0xff, 0x55, 0x55, 0xff, 0xff, 0x55, 0x55,  0xff, 0xff, 0x55, 0x55, 0xff, 0xff, 0x55, 0x55, };