#define pat5_width 16#define pat5_height 16static unsigned char pat5_bits[] = {  0xff, 0xff, 0x11, 0x11, 0x11, 0x11, 0x11, 0x11, 0xff, 0xff, 0x11, 0x11,  0x11, 0x11, 0x11, 0x11, 0xff, 0xff, 0x11, 0x11, 0x11, 0x11, 0x11, 0x11,  0xff, 0xff, 0x11, 0x11, 0x11, 0x11, 0x11, 0x11, };