#define pat6_width 16#define pat6_height 16static unsigned char pat6_bits[] = {  0x11, 0x11, 0x88, 0x88, 0x44, 0x44, 0x22, 0x22, 0x11, 0x11, 0x88, 0x88,  0x44, 0x44, 0x22, 0x22, 0x11, 0x11, 0x88, 0x88, 0x44, 0x44, 0x22, 0x22,  0x11, 0x11, 0x88, 0x88, 0x44, 0x44, 0x22, 0x22, };