#define pat8_width 16#define pat8_height 16static unsigned char pat8_bits[] = {  0x88, 0x88, 0x55, 0x55, 0x22, 0x22, 0x55, 0x55, 0x88, 0x88, 0x55, 0x55,  0x22, 0x22, 0x55, 0x55, 0x88, 0x88, 0x55, 0x55, 0x22, 0x22, 0x55, 0x55,  0x88, 0x88, 0x55, 0x55, 0x22, 0xa2, 0x55, 0x15, };