#define pat9_width 16#define pat9_height 16static unsigned char pat9_bits[] = {  0x00, 0x00, 0x44, 0x44, 0xee, 0xee, 0x44, 0x44, 0x00, 0x00, 0x44, 0x44,  0xee, 0xee, 0x44, 0x44, 0x00, 0x00, 0x44, 0x44, 0xee, 0xee, 0x44, 0x44,  0x00, 0x00, 0x44, 0x44, 0xee, 0xee, 0x44, 0x44, };