#define pointer_width 16#define pointer_height 16static unsigned char pointer_bits[] = {   0x00, 0x00, 0x00, 0x00, 0x0c, 0x00, 0xfc, 0x00, 0xf8, 0x03, 0xf8, 0x01,   0xf8, 0x00, 0xf8, 0x01, 0xb0, 0x03, 0x10, 0x07, 0x00, 0x0e, 0x00, 0x1c,   0x00, 0x38, 0x00, 0x30, 0x00, 0x00, 0x00, 0x00};