#define poly_width 16#define poly_height 16static unsigned char poly_bits[] = {   0x00, 0x00, 0x00, 0x00, 0x00, 0x01, 0xc0, 0x02, 0x20, 0x04, 0x18, 0x18,   0x04, 0x20, 0x02, 0x20, 0x04, 0x10, 0x08, 0x10, 0x10, 0x08, 0x10, 0x08,   0x20, 0x04, 0xc0, 0x07, 0x00, 0x00, 0x00, 0x00};