#define select_width 16#define select_height 16static unsigned char select_bits[] = {   0x00, 0x00, 0x00, 0x00, 0x00, 0x00, 0x66, 0x66, 0x02, 0x40, 0x00, 0x00,   0x00, 0x00, 0x02, 0x40, 0x02, 0x40, 0x00, 0x00, 0x00, 0x00, 0x02, 0x40,   0x66, 0x66, 0x00, 0x00, 0x00, 0x00, 0x00, 0x00};